<svg width="720" height="646" viewBox="0 0 720 646" fill="none" xmlns="http://www.w3.org/2000/svg">
<rect width="720" height="646" fill="#A8FFFF"/>
<path fill-rule="evenodd" clip-rule="evenodd" d="M196.241 278.623C209.227 270.86 214.602 239.591 215.645 225.347C216.359 215.604 214.298 212.638 210.758 215.355C205.153 219.656 201.81 217.835 198.52 216.042C194.744 213.985 191.038 211.966 184.063 219.284C179.461 224.112 174.413 223.751 169.891 223.429C165.211 223.095 161.093 222.801 158.614 228.337C156.036 234.093 161.963 239.501 169.233 246.134C177.557 253.729 187.642 262.931 188.735 276.101C189.087 280.334 193.338 280.358 196.241 278.623Z" fill="#062D26"/>
<path fill-rule="evenodd" clip-rule="evenodd" d="M515.623 406.522C500.135 412.393 448.949 415.978 414.383 416.58C403.435 416.77 392.701 417.683 382.029 418.59C367.424 419.832 352.934 421.064 338.166 420.422C331.271 420.251 320.505 419.266 308.188 418.138C289.283 416.408 266.721 414.343 248.88 414.375C237.766 414.389 235.493 410.955 234.528 404.776C231.73 387.049 220.218 381.026 208.969 375.141L208.963 375.138L208.961 375.137C207.555 374.401 206.151 373.667 204.771 372.913C197.25 368.783 198.565 362.029 200.263 353.306C202.675 340.91 205.862 324.538 185.57 306.067C175.365 296.808 187.525 290.114 196.468 285.191C197.79 284.463 199.041 283.774 200.14 283.121C221.653 268.528 223.932 228.188 222.021 214.996C218.352 194.134 224.854 191.157 238.225 189.638C256.088 187.58 265.593 167.076 272.86 149.437C278.054 136.759 287.15 130.797 298.894 137.907C310.539 144.951 324.049 135.917 328.61 129.589C341.28 112.029 362.553 117.958 377.386 135.313C379.229 137.476 381.299 139.992 383.587 142.772L383.591 142.778C395.517 157.273 413.34 178.937 435.654 195.02C476.175 224.228 496.699 248.818 527.268 290.043C532.211 296.71 534.89 301.424 537.659 306.297C541.261 312.637 545.015 319.245 554.107 330.769C567.535 347.799 559.362 362.763 549.109 379.1C541.109 392.18 530.551 400.849 515.623 406.522ZM518.7 361.303C532.49 361.303 533.92 345.828 524.472 326.889C512.344 308.186 505.07 299.888 498.255 292.114C491.831 284.785 485.816 277.922 476.527 263.25C459.328 236.082 448.107 229.573 422.314 214.61L422.312 214.609L422.303 214.604L422.295 214.599C419.385 212.911 416.289 211.115 412.978 209.17C401.709 202.548 396.871 197.289 388.297 187.968C383.579 182.839 377.729 176.479 369.053 167.986C350.926 150.24 328.21 160.474 315.244 177.397C283.15 219.284 262.629 187.968 258.195 263.75C257.326 278.598 286.405 285.513 316.669 290.451C372.206 298.55 410.921 352.222 468.488 357.596C471.738 357.899 500.52 361.303 518.7 361.303Z" fill="#062D26"/>
<path d="M315.244 177.397C328.21 160.474 350.926 150.24 369.053 167.986C377.729 176.479 383.579 182.839 388.297 187.968C396.871 197.289 401.709 202.548 412.978 209.17C416.289 211.115 419.385 212.911 422.295 214.599L422.303 214.604L422.312 214.609L422.314 214.61C448.107 229.573 459.328 236.082 476.527 263.25C485.816 277.922 491.831 284.785 498.255 292.114C505.07 299.888 512.344 308.186 524.472 326.889C533.92 345.828 532.49 361.303 518.7 361.303C500.52 361.303 471.738 357.899 468.488 357.596C410.921 352.222 372.206 298.55 316.669 290.451C286.405 285.513 257.326 278.598 258.195 263.75C262.629 187.968 283.15 219.284 315.244 177.397Z" fill="#E6FFFF"/>
<path fill-rule="evenodd" clip-rule="evenodd" d="M337.178 244.477C328.578 244.477 322.596 238.62 322.596 229.896V226.313C322.596 225.749 323.06 225.295 323.624 225.308L332.258 225.506C333.185 225.528 333.644 224.389 332.961 223.761L325.707 217.096C325.345 216.763 325.274 216.215 325.567 215.821C328.14 212.355 332.225 210.205 337.178 210.205C346.4 210.205 352.756 216.436 352.756 225.285V229.896C352.756 238.62 346.4 244.477 337.178 244.477Z" fill="#062D26"/>
<path d="M420.029 241.314C408.209 241.314 399.996 249.527 399.996 262.349V270.562C399.996 283.183 408.209 291.397 420.029 291.397C432.049 291.397 440.263 283.183 440.263 270.562V262.349C440.263 249.527 432.049 241.314 420.029 241.314Z" fill="white"/>
<path fill-rule="evenodd" clip-rule="evenodd" d="M419.61 282.686C411.011 282.686 405.029 276.829 405.029 268.105V264.522C405.029 263.958 405.493 263.504 406.057 263.517L414.691 263.715C415.618 263.737 416.077 262.598 415.394 261.97L408.14 255.305C407.778 254.972 407.707 254.424 408 254.03C410.573 250.564 414.658 248.414 419.61 248.414C428.833 248.414 435.189 254.645 435.189 263.494V268.105C435.189 276.829 428.833 282.686 419.61 282.686Z" fill="#062D26"/>
<path d="M225.785 306.211C227.214 308.674 229.919 309.391 232.589 307.84L234.3 306.847C236.929 305.32 237.647 302.616 236.217 300.154C234.764 297.65 232.059 296.932 229.43 298.459L227.719 299.452C225.048 301.003 224.331 303.708 225.785 306.211Z" fill="#E6FFFF"/>
<path d="M306.211 320.286C307.64 322.748 310.345 323.466 313.015 321.915L314.726 320.921C317.356 319.395 318.073 316.691 316.643 314.228C315.19 311.725 312.485 311.007 309.856 312.533L308.145 313.527C305.474 315.078 304.757 317.782 306.211 320.286Z" fill="#E6FFFF"/>
<path d="M348.434 366.531C349.864 368.993 352.568 369.711 355.239 368.16L356.95 367.166C359.579 365.64 360.297 362.936 358.867 360.473C357.413 357.969 354.709 357.252 352.08 358.778L350.369 359.772C347.698 361.323 346.981 364.027 348.434 366.531Z" fill="#E6FFFF"/>
<path d="M457.01 398.701C458.439 401.164 461.144 401.881 463.814 400.33L465.525 399.337C468.154 397.81 468.872 395.106 467.442 392.644C465.989 390.14 463.284 389.422 460.655 390.949L458.944 391.942C456.273 393.493 455.556 396.197 457.01 398.701Z" fill="#E6FFFF"/>
<path d="M282.083 175.519C283.512 177.981 286.217 178.699 288.888 177.148L290.599 176.155C293.228 174.628 293.945 171.924 292.516 169.461C291.062 166.958 288.357 166.24 285.728 167.767L284.017 168.76C281.347 170.311 280.629 173.015 282.083 175.519Z" fill="#E6FFFF"/>
<path d="M187.582 238.591C189.012 241.054 191.716 241.771 194.387 240.22L196.098 239.227C198.727 237.7 199.445 234.996 198.015 232.534C196.561 230.03 193.857 229.312 191.228 230.839L189.517 231.832C186.846 233.383 186.128 236.088 187.582 238.591Z" fill="#E6FFFF"/>
<path d="M282.083 386.637C283.512 389.1 286.217 389.817 288.888 388.266L290.599 387.273C293.228 385.746 293.945 383.042 292.516 380.58C291.062 378.076 288.357 377.358 285.728 378.885L284.017 379.878C281.347 381.429 280.629 384.134 282.083 386.637Z" fill="#E6FFFF"/>
<path fill-rule="evenodd" clip-rule="evenodd" d="M317.563 224.14C317.563 211.318 325.776 203.105 337.596 203.105C349.616 203.105 357.83 211.318 357.83 224.14V232.353C357.83 244.974 349.616 253.188 337.596 253.188C325.776 253.188 317.563 244.974 317.563 232.353V224.14ZM322.596 229.896C322.596 238.62 328.578 244.477 337.178 244.477C346.4 244.477 352.756 238.62 352.756 229.896V225.285C352.756 216.436 346.4 210.205 337.178 210.205C332.225 210.205 328.14 212.355 325.567 215.821C325.274 216.215 325.345 216.763 325.707 217.096L332.961 223.761C333.644 224.389 333.185 225.528 332.258 225.506L323.624 225.308C323.06 225.295 322.596 225.749 322.596 226.313V229.896Z" fill="#062D26"/>
<path fill-rule="evenodd" clip-rule="evenodd" d="M337.596 203.105C325.776 203.105 317.563 211.318 317.563 224.14V232.353C317.563 244.974 325.776 253.188 337.596 253.188C349.616 253.188 357.83 244.974 357.83 232.353V224.14C357.83 211.318 349.616 203.105 337.596 203.105ZM337.178 244.477C328.578 244.477 322.596 238.62 322.596 229.896V226.313C322.596 225.749 323.06 225.295 323.624 225.308L332.258 225.506C333.185 225.528 333.644 224.389 332.961 223.761L325.707 217.096C325.345 216.763 325.274 216.215 325.567 215.821C328.14 212.355 332.225 210.205 337.178 210.205C346.4 210.205 352.756 216.436 352.756 225.285V229.896C352.756 238.62 346.4 244.477 337.178 244.477Z" fill="white"/>
<path fill-rule="evenodd" clip-rule="evenodd" d="M341.762 195.408H337.938C323.68 195.408 309.295 205.925 312.176 232.696C313.71 246.956 315.032 255.643 328.377 262.336C333.488 264.899 331.739 268.865 329.299 274.395C327.698 278.025 325.8 282.329 325.349 287.352C337.474 290.401 351.19 294.567 365.023 301.01C367.392 302.113 369.798 303.453 372.216 304.939C371.529 303.773 370.731 302.635 369.808 301.536C360.767 290.777 362.219 285.883 364.564 277.979C365.762 273.944 367.192 269.123 367.577 262.336C368.488 246.276 367.577 221.223 367.577 221.223C367.577 206.966 356.019 195.408 341.762 195.408ZM317.563 224.14C317.563 211.318 325.776 203.105 337.596 203.105C349.616 203.105 357.83 211.318 357.83 224.14V232.353C357.83 244.974 349.616 253.188 337.596 253.188C325.776 253.188 317.563 244.974 317.563 232.353V224.14Z" fill="#062D26"/>
<path fill-rule="evenodd" clip-rule="evenodd" d="M420.371 233.617H424.195C438.452 233.617 450.01 245.175 450.01 259.432C450.01 259.432 450.921 284.485 450.01 300.545C448.872 320.623 438.583 323.492 452.241 339.745C455.55 343.683 457.255 348.125 457.94 352.597C455.391 355.397 423.42 338.43 407.753 329.597C406.601 314.582 420.143 305.225 410.81 300.545C397.464 293.852 396.143 285.165 394.609 270.905C391.728 244.134 406.113 233.617 420.371 233.617ZM399.996 262.349C399.996 249.527 408.209 241.314 420.029 241.314C432.049 241.314 440.263 249.527 440.263 262.349V270.562C440.263 283.183 432.049 291.397 420.029 291.397C408.209 291.397 399.996 283.183 399.996 270.562V262.349Z" fill="#062D26"/>
<path d="M505.764 272.395C504.372 269.911 501.678 269.153 498.984 270.663L497.258 271.63C494.606 273.117 493.848 275.81 495.24 278.293C496.655 280.819 499.349 281.578 502.001 280.091L503.726 279.124C506.421 277.614 507.179 274.921 505.764 272.395Z" fill="#E6FFFF"/>
<path d="M278.18 279.016C278.18 279.016 287.222 286.031 317.635 290.993C373.449 299.132 407.276 351.199 465.129 356.6C480.034 357.992 471.234 351.596 465.629 350.6C443.129 346.6 427.828 338.122 409.066 327.274C396.845 320.209 385.441 312.871 373.423 305.483C358.998 296.614 342.49 290.214 326.129 286.1C315.543 283.438 278.18 279.016 278.18 279.016Z" fill="#E6FFFF"/>
<path d="M172.217 527V455.225H182.81V485.42C186.176 479.282 192.017 476.51 198.848 476.51C209.342 476.51 217.46 482.549 217.46 494.924V527H206.867V498.29C206.867 488.489 202.313 485.222 196.274 485.222C189.74 485.222 182.81 489.479 182.81 500.864V527H172.217ZM271.33 519.872C272.419 519.872 273.805 519.674 274.795 519.377L274.201 526.703C272.815 527.297 270.835 527.792 268.459 527.792C263.212 527.693 258.955 525.416 257.767 520.664C254.5 525.614 247.966 527.99 242.026 527.99C232.621 527.99 225.691 523.436 225.691 514.526C225.691 507.2 230.74 502.349 239.551 500.567L257.173 497.102V495.221C257.173 488.687 253.312 484.826 246.976 484.826C241.135 484.826 236.581 487.4 234.7 493.637L225.79 489.875C228.265 481.856 235.69 476.51 247.372 476.51C259.153 476.51 267.667 482.252 267.667 494.132V516.209C267.667 518.684 268.954 519.872 271.33 519.872ZM244.204 519.773C250.936 519.773 257.173 516.605 257.173 508.685V504.527L244.699 507.101C239.056 508.19 236.383 509.873 236.383 513.734C236.383 517.397 239.452 519.773 244.204 519.773ZM290.369 455.225V513.14C290.369 517.991 292.052 519.575 295.913 519.575C298.388 519.575 299.477 519.377 302.051 518.387L300.863 526.307C298.685 527.396 295.517 527.99 292.646 527.99C283.835 527.99 279.776 523.634 279.776 514.031V455.225H290.369ZM320.022 471.164V477.5H336.06V485.816H320.319V527H309.726V485.816H300.42V477.5H309.726V470.372C309.726 460.373 316.161 454.532 326.952 454.532C331.011 454.532 334.575 455.423 336.357 456.908L334.377 464.531C332.892 463.64 331.11 463.145 328.734 463.145C323.289 463.145 320.022 465.422 320.022 471.164ZM374.906 455.225V513.14C374.906 517.991 376.589 519.575 380.45 519.575C382.925 519.575 384.014 519.377 386.588 518.387L385.4 526.307C383.222 527.396 380.054 527.99 377.183 527.99C368.372 527.99 364.313 523.634 364.313 514.031V455.225H374.906ZM395.846 469.184C391.292 469.184 388.718 466.709 388.718 462.551C388.718 458.393 391.292 456.017 395.846 456.017C400.4 456.017 402.875 458.393 402.875 462.551C402.875 466.709 400.4 469.184 395.846 469.184ZM401.093 477.5V527H390.5V477.5H401.093ZM457.96 475.322C451.624 475.025 447.961 477.302 447.268 481.559C450.634 484.529 452.515 488.489 452.515 493.241C452.515 503.339 444.001 509.972 431.131 509.972C428.359 509.972 425.884 509.675 423.706 509.18C420.142 510.269 418.756 512.249 418.756 514.427C418.756 517.694 421.231 519.278 425.785 519.278H440.635C450.733 519.278 456.475 524.03 456.475 531.752C456.475 542.246 445.882 548.285 431.527 548.285C415.192 548.285 407.668 542.642 407.668 535.118C407.668 530.663 410.044 526.802 416.182 525.416C412.519 523.832 410.242 521.06 410.242 516.605C410.242 512.249 412.816 508.685 417.667 507.002C412.519 504.131 409.846 499.28 409.846 493.241C409.846 483.143 418.36 476.51 431.131 476.51C435.289 476.51 438.952 477.203 442.12 478.49C443.11 471.659 448.555 466.907 456.277 467.105L457.96 475.322ZM431.131 502.646C437.269 502.646 441.823 498.884 441.823 493.241C441.823 487.598 437.269 483.935 431.131 483.935C425.092 483.935 420.538 487.598 420.538 493.241C420.538 498.884 425.092 502.646 431.131 502.646ZM439.051 527.99H423.112C419.35 527.99 416.578 530.069 416.578 533.336C416.578 537.593 422.122 540.365 431.527 540.365C442.417 540.365 447.466 536.999 447.466 533.039C447.466 529.97 445.387 527.99 439.051 527.99ZM461.231 527V455.225H471.824V485.42C475.19 479.282 481.031 476.51 487.862 476.51C498.356 476.51 506.474 482.549 506.474 494.924V527H495.881V498.29C495.881 488.489 491.327 485.222 485.288 485.222C478.754 485.222 471.824 489.479 471.824 500.864V527H461.231ZM546.894 516.011L549.27 523.733C546.201 526.406 541.746 527.99 536.301 527.99C527.589 527.99 520.956 524.129 520.857 513.932V485.816H511.353V477.5H520.857V465.917L531.45 462.947V477.5H548.478V485.816H531.45V512.15C531.45 517.001 534.321 519.179 538.578 519.179C542.241 519.179 544.716 517.991 546.894 516.011Z" fill="#062D26"/>
</svg>
