<svg width="720" height="646" viewBox="0 0 720 646" fill="none" xmlns="http://www.w3.org/2000/svg">
<rect width="720" height="646" fill="#A8FFFF"/>
<path fill-rule="evenodd" clip-rule="evenodd" d="M196.241 278.623C209.227 270.86 214.602 239.591 215.645 225.347C216.359 215.604 214.298 212.638 210.758 215.355C205.153 219.656 201.81 217.835 198.52 216.042C194.744 213.985 191.038 211.966 184.063 219.284C179.461 224.112 174.413 223.751 169.891 223.429C165.211 223.095 161.093 222.801 158.614 228.337C156.036 234.093 161.963 239.501 169.233 246.134C177.557 253.729 187.642 262.931 188.735 276.101C189.087 280.334 193.338 280.358 196.241 278.623Z" fill="#232323"/>
<path fill-rule="evenodd" clip-rule="evenodd" d="M515.623 406.522C500.135 412.393 448.949 415.978 414.383 416.58C403.435 416.77 392.701 417.683 382.029 418.59C367.424 419.832 352.934 421.064 338.166 420.422C331.271 420.251 320.505 419.266 308.188 418.138C289.283 416.408 266.721 414.343 248.88 414.375C237.766 414.389 235.493 410.955 234.528 404.776C231.73 387.049 220.218 381.026 208.969 375.141L208.963 375.138L208.961 375.137C207.555 374.401 206.151 373.667 204.771 372.913C197.25 368.783 198.565 362.029 200.263 353.306C202.675 340.91 205.862 324.538 185.57 306.067C175.365 296.808 187.525 290.114 196.468 285.191C197.79 284.463 199.041 283.774 200.14 283.121C221.653 268.528 223.932 228.188 222.021 214.996C218.352 194.134 224.854 191.157 238.225 189.638C256.088 187.58 265.593 167.076 272.86 149.437C278.054 136.759 287.15 130.797 298.894 137.907C310.539 144.951 324.049 135.917 328.61 129.589C341.28 112.029 362.553 117.958 377.386 135.313C379.229 137.476 381.299 139.992 383.587 142.772L383.591 142.778C395.517 157.273 413.34 178.937 435.654 195.02C476.175 224.228 496.699 248.818 527.268 290.043C532.211 296.71 534.89 301.424 537.659 306.297C541.261 312.637 545.015 319.245 554.107 330.769C567.535 347.799 559.362 362.763 549.109 379.1C541.109 392.18 530.551 400.849 515.623 406.522ZM518.7 361.303C532.49 361.303 533.92 345.828 524.472 326.889C512.344 308.186 505.07 299.888 498.255 292.114C491.831 284.785 485.816 277.922 476.527 263.25C459.328 236.082 448.107 229.573 422.314 214.61L422.312 214.609L422.303 214.604L422.295 214.599C419.385 212.911 416.289 211.115 412.978 209.17C401.709 202.548 396.871 197.289 388.297 187.968C383.579 182.839 377.729 176.479 369.053 167.986C350.926 150.24 328.21 160.474 315.244 177.397C283.15 219.284 262.629 187.968 258.195 263.75C257.326 278.598 286.405 285.513 316.669 290.451C372.206 298.55 410.921 352.222 468.488 357.596C471.738 357.899 500.52 361.303 518.7 361.303Z" fill="#232323"/>
<path d="M315.244 177.397C328.21 160.474 350.926 150.24 369.053 167.986C377.729 176.479 383.579 182.839 388.297 187.968C396.871 197.289 401.709 202.548 412.978 209.17C416.289 211.115 419.385 212.911 422.295 214.599L422.303 214.604L422.312 214.609L422.314 214.61C448.107 229.573 459.328 236.082 476.527 263.25C485.816 277.922 491.831 284.785 498.255 292.114C505.07 299.888 512.344 308.186 524.472 326.889C533.92 345.828 532.49 361.303 518.7 361.303C500.52 361.303 471.738 357.899 468.488 357.596C410.921 352.222 372.206 298.55 316.669 290.451C286.405 285.513 257.326 278.598 258.195 263.75C262.629 187.968 283.15 219.284 315.244 177.397Z" fill="#E6FFFF"/>
<path fill-rule="evenodd" clip-rule="evenodd" d="M337.178 244.479C328.578 244.479 322.596 238.622 322.596 229.898V226.315C322.596 225.751 323.06 225.297 323.624 225.31L332.258 225.508C333.185 225.53 333.644 224.391 332.961 223.763L325.707 217.098C325.345 216.765 325.274 216.217 325.567 215.823C328.14 212.357 332.225 210.207 337.178 210.207C346.4 210.207 352.756 216.438 352.756 225.287V229.898C352.756 238.622 346.4 244.479 337.178 244.479Z" fill="#232323"/>
<path d="M420.029 241.316C408.209 241.316 399.996 249.529 399.996 262.351V270.564C399.996 283.185 408.209 291.399 420.029 291.399C432.049 291.399 440.263 283.185 440.263 270.564V262.351C440.263 249.529 432.049 241.316 420.029 241.316Z" fill="white"/>
<path fill-rule="evenodd" clip-rule="evenodd" d="M419.61 282.688C411.011 282.688 405.029 276.831 405.029 268.107V264.524C405.029 263.96 405.493 263.506 406.057 263.519L414.691 263.717C415.618 263.739 416.077 262.6 415.394 261.972L408.14 255.307C407.778 254.974 407.707 254.426 408 254.032C410.573 250.566 414.658 248.416 419.61 248.416C428.833 248.416 435.189 254.647 435.189 263.496V268.107C435.189 276.831 428.833 282.688 419.61 282.688Z" fill="#232323"/>
<path d="M225.785 306.213C227.214 308.675 229.919 309.393 232.589 307.842L234.3 306.849C236.929 305.322 237.647 302.618 236.217 300.156C234.764 297.652 232.059 296.934 229.43 298.461L227.719 299.454C225.048 301.005 224.331 303.709 225.785 306.213Z" fill="#E6FFFF"/>
<path d="M306.211 320.288C307.64 322.75 310.345 323.468 313.015 321.917L314.726 320.923C317.356 319.397 318.073 316.692 316.643 314.23C315.19 311.726 312.485 311.009 309.856 312.535L308.145 313.529C305.474 315.08 304.757 317.784 306.211 320.288Z" fill="#E6FFFF"/>
<path d="M348.434 366.533C349.864 368.995 352.568 369.713 355.239 368.162L356.95 367.168C359.579 365.642 360.297 362.937 358.867 360.475C357.413 357.971 354.709 357.254 352.08 358.78L350.369 359.774C347.698 361.325 346.981 364.029 348.434 366.533Z" fill="#E6FFFF"/>
<path d="M457.01 398.703C458.439 401.165 461.144 401.883 463.814 400.332L465.525 399.339C468.154 397.812 468.872 395.108 467.442 392.646C465.989 390.142 463.284 389.424 460.655 390.951L458.944 391.944C456.273 393.495 455.556 396.199 457.01 398.703Z" fill="#E6FFFF"/>
<path d="M282.083 175.521C283.512 177.983 286.217 178.701 288.888 177.15L290.599 176.157C293.228 174.63 293.945 171.926 292.516 169.463C291.062 166.96 288.357 166.242 285.728 167.769L284.017 168.762C281.347 170.313 280.629 173.017 282.083 175.521Z" fill="#E6FFFF"/>
<path d="M187.582 238.593C189.012 241.055 191.716 241.773 194.387 240.222L196.098 239.229C198.727 237.702 199.445 234.998 198.015 232.536C196.561 230.032 193.857 229.314 191.228 230.841L189.517 231.834C186.846 233.385 186.128 236.089 187.582 238.593Z" fill="#E6FFFF"/>
<path d="M282.083 386.639C283.512 389.102 286.217 389.819 288.888 388.268L290.599 387.275C293.228 385.748 293.945 383.044 292.516 380.582C291.062 378.078 288.357 377.36 285.728 378.887L284.017 379.88C281.347 381.431 280.629 384.136 282.083 386.639Z" fill="#E6FFFF"/>
<path fill-rule="evenodd" clip-rule="evenodd" d="M317.563 224.142C317.563 211.32 325.776 203.107 337.596 203.107C349.616 203.107 357.83 211.32 357.83 224.142V232.355C357.83 244.976 349.616 253.19 337.596 253.19C325.776 253.19 317.563 244.976 317.563 232.355V224.142ZM322.596 229.898C322.596 238.622 328.578 244.479 337.178 244.479C346.4 244.479 352.756 238.622 352.756 229.898V225.287C352.756 216.438 346.4 210.207 337.178 210.207C332.225 210.207 328.14 212.357 325.567 215.823C325.274 216.217 325.345 216.765 325.707 217.098L332.961 223.763C333.644 224.391 333.185 225.53 332.258 225.508L323.624 225.31C323.06 225.297 322.596 225.751 322.596 226.315V229.898Z" fill="#232323"/>
<path fill-rule="evenodd" clip-rule="evenodd" d="M337.596 203.107C325.776 203.107 317.563 211.32 317.563 224.142V232.355C317.563 244.976 325.776 253.19 337.596 253.19C349.616 253.19 357.83 244.976 357.83 232.355V224.142C357.83 211.32 349.616 203.107 337.596 203.107ZM337.178 244.479C328.578 244.479 322.596 238.622 322.596 229.898V226.315C322.596 225.751 323.06 225.297 323.624 225.31L332.258 225.508C333.185 225.53 333.644 224.391 332.961 223.763L325.707 217.098C325.345 216.765 325.274 216.217 325.567 215.823C328.14 212.357 332.225 210.207 337.178 210.207C346.4 210.207 352.756 216.438 352.756 225.287V229.898C352.756 238.622 346.4 244.479 337.178 244.479Z" fill="white"/>
<path fill-rule="evenodd" clip-rule="evenodd" d="M341.762 195.41H337.938C323.68 195.41 309.295 205.927 312.176 232.698C313.71 246.958 315.032 255.645 328.377 262.338C333.488 264.901 331.739 268.867 329.299 274.397C327.698 278.027 325.8 282.331 325.349 287.354C337.474 290.403 351.19 294.569 365.023 301.012C367.392 302.115 369.798 303.455 372.216 304.941C371.529 303.775 370.731 302.637 369.808 301.538C360.767 290.779 362.219 285.885 364.564 277.981C365.762 273.946 367.192 269.125 367.577 262.338C368.488 246.278 367.577 221.225 367.577 221.225C367.577 206.968 356.019 195.41 341.762 195.41ZM317.563 224.142C317.563 211.32 325.776 203.107 337.596 203.107C349.616 203.107 357.83 211.32 357.83 224.142V232.355C357.83 244.976 349.616 253.19 337.596 253.19C325.776 253.19 317.563 244.976 317.563 232.355V224.142Z" fill="#232323"/>
<path fill-rule="evenodd" clip-rule="evenodd" d="M420.371 233.619H424.195C438.452 233.619 450.01 245.177 450.01 259.434C450.01 259.434 450.921 284.487 450.01 300.547C448.872 320.625 438.583 323.493 452.241 339.747C455.55 343.685 457.255 348.127 457.94 352.599C455.391 355.399 423.42 338.432 407.753 329.599C406.601 314.584 420.143 305.227 410.81 300.547C397.464 293.854 396.143 285.167 394.609 270.907C391.728 244.136 406.113 233.619 420.371 233.619ZM399.996 262.351C399.996 249.529 408.209 241.316 420.029 241.316C432.049 241.316 440.263 249.529 440.263 262.351V270.564C440.263 283.185 432.049 291.399 420.029 291.399C408.209 291.399 399.996 283.185 399.996 270.564V262.351Z" fill="#232323"/>
<path d="M505.767 272.398C504.375 269.914 501.682 269.156 498.988 270.666L497.262 271.633C494.61 273.119 493.852 275.813 495.244 278.296C496.659 280.822 499.353 281.581 502.004 280.094L503.73 279.127C506.424 277.617 507.183 274.924 505.767 272.398Z" fill="#E6FFFF"/>
<path d="M278.18 279.014C278.18 279.014 287.222 286.029 317.635 290.991C373.449 299.13 407.276 351.197 465.129 356.598C480.034 357.99 471.234 351.594 465.629 350.598C443.129 346.598 427.828 338.12 409.066 327.272C396.845 320.207 385.441 312.869 373.423 305.481C358.998 296.612 342.49 290.212 326.129 286.098C315.543 283.436 278.18 279.014 278.18 279.014Z" fill="#E6FFFF"/>
<path d="M172.217 527V455.225H182.81V485.42C186.176 479.282 192.017 476.51 198.848 476.51C209.342 476.51 217.46 482.549 217.46 494.924V527H206.867V498.29C206.867 488.489 202.313 485.222 196.274 485.222C189.74 485.222 182.81 489.479 182.81 500.864V527H172.217ZM271.33 519.872C272.419 519.872 273.805 519.674 274.795 519.377L274.201 526.703C272.815 527.297 270.835 527.792 268.459 527.792C263.212 527.693 258.955 525.416 257.767 520.664C254.5 525.614 247.966 527.99 242.026 527.99C232.621 527.99 225.691 523.436 225.691 514.526C225.691 507.2 230.74 502.349 239.551 500.567L257.173 497.102V495.221C257.173 488.687 253.312 484.826 246.976 484.826C241.135 484.826 236.581 487.4 234.7 493.637L225.79 489.875C228.265 481.856 235.69 476.51 247.372 476.51C259.153 476.51 267.667 482.252 267.667 494.132V516.209C267.667 518.684 268.954 519.872 271.33 519.872ZM244.204 519.773C250.936 519.773 257.173 516.605 257.173 508.685V504.527L244.699 507.101C239.056 508.19 236.383 509.873 236.383 513.734C236.383 517.397 239.452 519.773 244.204 519.773ZM290.369 455.225V513.14C290.369 517.991 292.052 519.575 295.913 519.575C298.388 519.575 299.477 519.377 302.051 518.387L300.863 526.307C298.685 527.396 295.517 527.99 292.646 527.99C283.835 527.99 279.776 523.634 279.776 514.031V455.225H290.369ZM320.022 471.164V477.5H336.06V485.816H320.319V527H309.726V485.816H300.42V477.5H309.726V470.372C309.726 460.373 316.161 454.532 326.952 454.532C331.011 454.532 334.575 455.423 336.357 456.908L334.377 464.531C332.892 463.64 331.11 463.145 328.734 463.145C323.289 463.145 320.022 465.422 320.022 471.164ZM374.906 455.225V513.14C374.906 517.991 376.589 519.575 380.45 519.575C382.925 519.575 384.014 519.377 386.588 518.387L385.4 526.307C383.222 527.396 380.054 527.99 377.183 527.99C368.372 527.99 364.313 523.634 364.313 514.031V455.225H374.906ZM395.846 469.184C391.292 469.184 388.718 466.709 388.718 462.551C388.718 458.393 391.292 456.017 395.846 456.017C400.4 456.017 402.875 458.393 402.875 462.551C402.875 466.709 400.4 469.184 395.846 469.184ZM401.093 477.5V527H390.5V477.5H401.093ZM457.96 475.322C451.624 475.025 447.961 477.302 447.268 481.559C450.634 484.529 452.515 488.489 452.515 493.241C452.515 503.339 444.001 509.972 431.131 509.972C428.359 509.972 425.884 509.675 423.706 509.18C420.142 510.269 418.756 512.249 418.756 514.427C418.756 517.694 421.231 519.278 425.785 519.278H440.635C450.733 519.278 456.475 524.03 456.475 531.752C456.475 542.246 445.882 548.285 431.527 548.285C415.192 548.285 407.668 542.642 407.668 535.118C407.668 530.663 410.044 526.802 416.182 525.416C412.519 523.832 410.242 521.06 410.242 516.605C410.242 512.249 412.816 508.685 417.667 507.002C412.519 504.131 409.846 499.28 409.846 493.241C409.846 483.143 418.36 476.51 431.131 476.51C435.289 476.51 438.952 477.203 442.12 478.49C443.11 471.659 448.555 466.907 456.277 467.105L457.96 475.322ZM431.131 502.646C437.269 502.646 441.823 498.884 441.823 493.241C441.823 487.598 437.269 483.935 431.131 483.935C425.092 483.935 420.538 487.598 420.538 493.241C420.538 498.884 425.092 502.646 431.131 502.646ZM439.051 527.99H423.112C419.35 527.99 416.578 530.069 416.578 533.336C416.578 537.593 422.122 540.365 431.527 540.365C442.417 540.365 447.466 536.999 447.466 533.039C447.466 529.97 445.387 527.99 439.051 527.99ZM461.231 527V455.225H471.824V485.42C475.19 479.282 481.031 476.51 487.862 476.51C498.356 476.51 506.474 482.549 506.474 494.924V527H495.881V498.29C495.881 488.489 491.327 485.222 485.288 485.222C478.754 485.222 471.824 489.479 471.824 500.864V527H461.231ZM546.894 516.011L549.27 523.733C546.201 526.406 541.746 527.99 536.301 527.99C527.589 527.99 520.956 524.129 520.857 513.932V485.816H511.353V477.5H520.857V465.917L531.45 462.947V477.5H548.478V485.816H531.45V512.15C531.45 517.001 534.321 519.179 538.578 519.179C542.241 519.179 544.716 517.991 546.894 516.011Z" fill="#232323"/>
</svg>
